<svg xmlns="http://www.w3.org/2000/svg" width="506" height="441" viewBox="0 0 506 441" fill="none"><path d="M505.844 296.724H311.788V196.985H505.844V296.724ZM312.972 295.672H504.66V198.037H312.972V295.672Z" fill="#E0E0E0"></path><path d="M465.812 250.167H337.779V253.501H465.812V250.167Z" fill="#F0F0F0"></path><path d="M474.633 262.598H337.779V266.236H474.633V262.598Z" fill="#F0F0F0"></path><path d="M474.633 275.175H337.779V278.814H474.633V275.175Z" fill="#F0F0F0"></path><path d="M382.525 232.11H337.779V240.765H382.525V232.11Z" fill="#F0F0F0"></path><path d="M505.253 197.511H312.416V213.391H505.253V197.511Z" fill="#E0E0E0"></path><path d="M490.417 211.014C490.168 210.803 492.654 208.143 495.958 205.072C499.262 202.001 502.163 199.677 502.399 199.877C502.636 200.076 500.161 202.748 496.858 205.829C493.554 208.91 490.653 211.224 490.417 211.014Z" fill="white"></path><path d="M502.423 211.014C502.186 211.224 499.297 208.911 495.981 205.829C492.666 202.748 490.191 200.087 490.44 199.877C490.689 199.667 493.566 201.98 496.881 205.072C500.197 208.164 502.648 210.804 502.423 211.014Z" fill="white"></path><path d="M267.054 0H74.2173V98.6976H267.054V0Z" fill="#E6E6E6"></path><path d="M227.624 52.6671H99.5911V56.0009H227.624V52.6671Z" fill="#F0F0F0"></path><path d="M236.445 65.0973H99.5911V68.736H236.445V65.0973Z" fill="#F0F0F0"></path><path d="M236.445 77.6749H99.5911V81.3136H236.445V77.6749Z" fill="#F0F0F0"></path><path d="M144.337 34.61H99.5911V43.2651H144.337V34.61Z" fill="#F0F0F0"></path><path d="M267.054 0H74.2173V15.88H267.054V0Z" fill="#E0E0E0"></path><path d="M251.567 13.4293C251.318 13.2294 253.805 10.5582 257.108 7.48741C260.412 4.41659 263.313 2.09244 263.55 2.30277C263.787 2.5131 261.312 5.17378 258.008 8.24461C254.705 11.3154 251.804 13.6185 251.567 13.4293Z" fill="white"></path><path d="M263.55 13.4293C263.313 13.6396 260.424 11.326 257.108 8.24466C253.793 5.16332 251.318 2.51316 251.567 2.30283C251.816 2.0925 254.693 4.40613 258.008 7.48747C261.324 10.5688 263.798 13.2295 263.55 13.4293Z" fill="white"></path><path d="M194.021 183.345H0V83.5955H194.021V183.345ZM1.18407 182.293H192.837V84.6471H1.18407V182.293Z" fill="#E0E0E0"></path><path d="M154 136.788H25.967V140.122H154V136.788Z" fill="#F0F0F0"></path><path d="M162.821 149.219H25.967V152.857H162.821V149.219Z" fill="#F0F0F0"></path><path d="M162.821 161.797H25.967V165.435H162.821V161.797Z" fill="#F0F0F0"></path><path d="M70.7129 118.731H25.967V127.386H70.7129V118.731Z" fill="#F0F0F0"></path><path d="M193.429 84.1218H0.591553V100.002H193.429V84.1218Z" fill="#E0E0E0"></path><path d="M417.941 206.198H190.245V387.25H417.941V206.198Z" fill="#E6E6E6"></path><path d="M201.694 149.166H23.3267V313.76H201.694V149.166Z" fill="#F0F0F0"></path><path d="M201.694 149.166H23.3267V167.097H201.694V149.166Z" fill="#E0E0E0"></path><path d="M38.056 157.948C38.0236 158.598 37.7768 159.225 37.3465 159.752C36.9161 160.279 36.321 160.682 35.6351 160.911C34.9492 161.14 34.2026 161.185 33.4881 161.041C32.7735 160.896 32.1224 160.569 31.6156 160.099C31.1088 159.629 30.7685 159.037 30.6371 158.396C30.5057 157.756 30.5888 157.096 30.8762 156.497C31.1637 155.898 31.6427 155.388 32.2539 155.029C32.8651 154.669 33.5816 154.478 34.3144 154.477C35.3278 154.499 36.2901 154.877 36.9912 155.527C37.6923 156.177 38.0751 157.047 38.056 157.948Z" fill="white"></path><path d="M53.2475 157.948C53.2173 158.601 52.9715 159.232 52.5406 159.762C52.1097 160.292 51.5128 160.698 50.8242 160.929C50.1355 161.16 49.3855 161.207 48.6676 161.062C47.9496 160.918 47.2953 160.589 46.7861 160.116C46.277 159.644 45.9354 159.049 45.804 158.406C45.6725 157.763 45.757 157.099 46.0468 156.498C46.3367 155.897 46.8192 155.385 47.4342 155.026C48.0492 154.666 48.7696 154.476 49.5058 154.477C50.5192 154.499 51.4816 154.877 52.1826 155.527C52.8837 156.177 53.2666 157.047 53.2475 157.948Z" fill="white"></path><path d="M68.4389 157.948C68.4087 158.601 68.1629 159.232 67.732 159.762C67.3011 160.292 66.7042 160.698 66.0156 160.929C65.3269 161.16 64.5769 161.207 63.859 161.062C63.141 160.918 62.4867 160.589 61.9776 160.116C61.4684 159.644 61.1268 159.049 60.9954 158.406C60.8639 157.763 60.9484 157.099 61.2383 156.498C61.5281 155.897 62.0106 155.385 62.6256 155.026C63.2406 154.666 63.9611 154.476 64.6972 154.477C65.7106 154.499 66.673 154.877 67.3741 155.527C68.0751 156.177 68.458 157.047 68.4389 157.948Z" fill="white"></path><path d="M480.377 35.9982H252.681V237.558H480.377V35.9982Z" fill="#F0F0F0"></path><path d="M480.377 35.9982H252.681V59.6078H480.377V35.9982Z" fill="#E0E0E0"></path><path d="M272.075 47.5659C272.033 48.4242 271.708 49.2527 271.141 49.9486C270.574 50.6444 269.789 51.1769 268.884 51.48C267.979 51.7831 266.993 51.8434 266.05 51.6534C265.107 51.4634 264.247 51.0315 263.578 50.4113C262.908 49.7912 262.459 49.01 262.285 48.1649C262.111 47.3198 262.22 46.4479 262.6 45.6576C262.979 44.8672 263.611 44.1932 264.418 43.7192C265.224 43.2451 266.17 42.992 267.137 42.9912C268.474 43.0188 269.744 43.5157 270.67 44.373C271.595 45.2304 272.1 46.3784 272.075 47.5659Z" fill="white"></path><path d="M290.628 44.4741C291.285 45.1072 291.717 45.8979 291.871 46.7476C292.025 47.5974 291.894 48.4686 291.495 49.2527C291.095 50.0368 290.445 50.6992 289.624 51.1573C288.804 51.6154 287.85 51.849 286.881 51.8289C285.912 51.8088 284.971 51.536 284.176 51.0444C283.381 50.5528 282.766 49.8642 282.408 49.0644C282.05 48.2646 281.965 47.3889 282.163 46.5464C282.362 45.704 282.835 44.9321 283.524 44.3268C284.489 43.5112 285.779 43.0687 287.11 43.0963C288.442 43.1239 289.707 43.6194 290.628 44.4741Z" fill="white"></path><path d="M312.073 47.5659C312.031 48.4242 311.706 49.2527 311.139 49.9486C310.572 50.6444 309.787 51.1769 308.882 51.48C307.977 51.7831 306.991 51.8434 306.048 51.6534C305.104 51.4634 304.245 51.0315 303.575 50.4113C302.906 49.7912 302.456 49.01 302.283 48.1649C302.109 47.3198 302.218 46.4479 302.597 45.6576C302.976 44.8672 303.609 44.1932 304.415 43.7192C305.222 43.2451 306.168 42.992 307.135 42.9912C308.472 43.0188 309.742 43.5157 310.667 44.373C311.593 45.2304 312.098 46.3784 312.073 47.5659Z" fill="white"></path><path d="M431.189 440.727C431.189 440.874 348.968 441 247.576 441C146.185 441 63.9277 440.874 63.9277 440.727C63.9277 440.579 146.137 440.453 247.576 440.453C349.015 440.453 431.189 440.59 431.189 440.727Z" fill="#263238"></path><path d="M351.076 311.983C332.782 300.636 328.638 279.571 329.36 260.631C329.479 257.476 329.088 254.132 330.781 251.366C332.474 248.6 336.429 246.696 339.614 248.022C342.255 249.126 343.403 251.86 344.883 254.121C346.858 257.133 349.752 259.586 353.231 261.199C355.493 262.25 358.299 262.881 360.537 261.788C363.615 260.284 363.97 256.529 363.947 253.374C363.947 247.506 363.907 241.645 363.828 235.791C363.616 232.647 363.975 229.494 364.894 226.452C365.995 223.465 368.446 220.7 371.797 219.858C375.148 219.017 379.328 220.752 380.086 223.823C380.216 225.124 380.252 226.43 380.192 227.735C380.287 229.05 380.974 230.49 382.359 230.89C383.744 231.29 385.189 230.375 386.255 229.449C389.901 226.294 392.388 222.182 394.697 218.123C397.006 214.064 399.267 209.889 402.583 206.429C405.898 202.969 410.481 200.224 415.608 199.961C420.735 199.698 426.075 202.496 427.354 206.912C428.632 211.329 425.731 215.841 422.617 219.427C417.918 224.75 412.379 229.443 406.171 233.361C404.959 233.949 403.992 234.867 403.412 235.98C402.642 238.083 404.88 240.187 407.213 240.849C409.853 241.627 412.718 241.386 415.501 241.68C418.284 241.975 421.244 243.047 422.298 245.361C423.742 248.579 420.711 251.944 417.739 254.153C411.771 258.57 404.995 262.045 397.704 264.427C395.1 265.269 392.364 266.015 390.257 267.635C388.149 269.254 386.894 272.083 388.161 274.302C389.428 276.521 392.684 277.226 395.419 276.774C398.154 276.322 400.582 275.017 403.187 274.145C408.053 272.515 414.329 272.809 417.396 276.542C418.346 277.828 418.947 279.293 419.152 280.82C419.358 282.347 419.162 283.896 418.58 285.345C417.394 288.228 415.571 290.87 413.216 293.116C405.461 301.346 395.384 307.599 384.017 311.236C372.733 314.707 362.277 315.653 351.064 312.004" fill="#BA68C8"></path><path d="M422.144 202.559C422.144 202.559 422.037 202.664 421.8 202.853L420.747 203.684C419.823 204.42 418.461 205.493 416.745 206.913C411.877 210.927 407.357 215.262 403.222 219.88C400.582 222.793 397.847 226.095 394.934 229.681C392.021 233.267 389.014 237.137 386.03 241.249C382.849 245.585 379.936 250.072 377.303 254.689C375.93 257.098 374.722 259.611 373.479 262.177L369.808 270.012C364.97 279.881 360.756 289.982 357.186 300.268C354.311 308.684 352.328 317.321 351.266 326.065C350.577 331.966 350.466 337.909 350.934 343.827C351.124 345.931 351.301 347.54 351.467 348.633C351.538 349.159 351.585 349.58 351.633 349.885V350.316C351.582 350.179 351.546 350.038 351.526 349.895C351.467 349.59 351.396 349.18 351.301 348.654C351.088 347.603 350.863 345.941 350.65 343.838C350.079 337.909 350.118 331.946 350.768 326.023C351.765 317.241 353.704 308.564 356.558 300.11C360.098 289.795 364.301 279.668 369.145 269.78L372.91 261.977C374.154 259.422 375.373 256.887 376.759 254.468C379.409 249.837 382.346 245.34 385.556 240.997C388.587 236.79 391.642 232.983 394.52 229.429C397.397 225.874 400.179 222.551 402.808 219.648C406.984 215.042 411.565 210.738 416.508 206.776C418.26 205.377 419.657 204.326 420.605 203.621L421.706 202.832C421.841 202.728 421.988 202.636 422.144 202.559Z" fill="#263238"></path><path d="M376.911 254.447C376.744 254.014 376.629 253.566 376.568 253.111C376.378 252.239 376.165 251.008 375.917 249.41C375.408 246.255 374.887 241.932 374.33 237.147C373.774 232.362 373.146 228.029 372.625 224.906C372.353 223.35 372.116 222.098 371.95 221.225C371.821 220.779 371.753 220.319 371.749 219.858C371.953 220.279 372.1 220.721 372.187 221.173C372.447 222.035 372.743 223.276 373.075 224.843C373.75 227.998 374.413 232.289 374.969 237.084C375.526 241.88 376 246.086 376.367 249.357C376.544 250.829 376.698 252.081 376.817 253.08C376.909 253.531 376.94 253.99 376.911 254.447Z" fill="#263238"></path><path d="M422.474 246.897C421.898 247.008 421.311 247.071 420.722 247.086C419.538 247.181 417.856 247.307 415.772 247.517C411.605 247.917 405.874 248.653 399.586 249.705C393.299 250.756 387.651 251.945 383.59 252.86C381.565 253.322 379.931 253.743 378.853 254.027C378.278 254.208 377.683 254.335 377.077 254.405C377.624 254.161 378.195 253.96 378.782 253.806C379.895 253.459 381.506 252.975 383.518 252.46C387.556 251.408 393.204 250.157 399.515 249.084C404.861 248.176 410.256 247.509 415.678 247.086C417.773 246.928 419.467 246.865 420.651 246.844C421.259 246.807 421.87 246.825 422.474 246.897Z" fill="#263238"></path><path d="M357.138 299.374C357.012 299.222 356.909 299.056 356.831 298.88L356.049 297.418C355.374 296.145 354.462 294.263 353.373 291.96C351.171 287.333 348.365 280.854 345.381 273.661C342.397 266.468 339.65 259.99 337.566 255.31C336.548 253.038 335.707 251.177 335.079 249.789L334.416 248.285C334.324 248.111 334.261 247.927 334.227 247.738C334.353 247.89 334.457 248.056 334.535 248.232L335.316 249.694C335.979 250.967 336.903 252.849 337.992 255.152C340.194 259.779 343.001 266.258 345.985 273.451C348.968 280.644 351.715 287.122 353.799 291.802C354.818 294.074 355.658 295.935 356.274 297.323C356.546 297.923 356.771 298.375 356.949 298.827C357.041 299.001 357.105 299.185 357.138 299.374Z" fill="#263238"></path><path d="M417.62 282.053C417.43 282.15 417.227 282.224 417.016 282.274L415.263 282.8L408.787 284.661C403.316 286.239 395.762 288.489 387.473 290.971C379.185 293.453 371.595 295.662 366.089 297.134C363.342 297.881 361.104 298.449 359.553 298.827L357.765 299.237C357.557 299.296 357.343 299.335 357.126 299.353C357.315 299.256 357.518 299.182 357.73 299.132L359.482 298.606L365.959 296.745C371.429 295.167 378.984 292.917 387.272 290.435C395.561 287.953 403.139 285.745 408.644 284.272C411.403 283.526 413.629 282.958 415.192 282.579L416.98 282.169C417.188 282.11 417.403 282.072 417.62 282.053Z" fill="#263238"></path><path d="M392.945 26.9541L386.847 28.8891L384.23 21.8115C379.423 8.76049 364.101 1.8301 350.022 6.23653C335.944 10.6429 328.449 24.9559 333.256 38.0069L335.873 45.0846L329.751 47.0301C327.417 47.8343 325.521 49.4064 324.458 51.4198C323.396 53.4333 323.247 55.733 324.044 57.8411L341.012 103.893C341.364 104.937 341.949 105.907 342.731 106.745C343.514 107.584 344.478 108.275 345.568 108.776C346.657 109.278 347.848 109.579 349.071 109.664C350.294 109.748 351.523 109.613 352.687 109.267L415.88 89.1909C418.245 88.3881 420.168 86.802 421.243 84.7661C422.319 82.7303 422.463 80.4033 421.647 78.2747L404.667 32.2229C404.306 31.1822 403.712 30.2169 402.921 29.3844C402.131 28.552 401.16 27.8696 400.065 27.3778C398.971 26.8861 397.777 26.5952 396.554 26.5224C395.33 26.4495 394.103 26.5964 392.945 26.9541ZM344.777 34.3156C343.481 30.9222 343.713 27.2149 345.426 23.9704C347.139 20.7259 350.199 18.196 353.965 16.9108C355.825 16.3457 357.794 16.1191 359.754 16.2445C361.715 16.3699 363.627 16.8447 365.376 17.6407C367.125 18.4367 368.676 19.5375 369.936 20.8774C371.196 22.2174 372.139 23.769 372.709 25.4397L375.314 32.5173L347.382 41.3933L344.777 34.3156ZM380.299 75.1828L384.633 86.9403C384.712 87.1761 384.687 87.43 384.561 87.6493C384.435 87.8687 384.219 88.0366 383.958 88.1182L377.883 90.0427C377.642 90.1022 377.383 90.0763 377.163 89.9705C376.942 89.8646 376.776 89.687 376.699 89.4748L372.33 77.7699C369.921 77.6533 367.609 76.8858 365.705 75.5702C363.8 74.2546 362.394 72.4536 361.674 70.4083C360.644 67.7045 360.832 64.7516 362.198 62.168C363.564 59.5843 366.003 57.5703 369.003 56.5476C370.484 56.098 372.053 55.918 373.614 56.0181C375.175 56.1183 376.698 56.4966 378.092 57.1306C379.485 57.7646 380.72 58.6412 381.724 59.7082C382.728 60.7752 383.479 62.0108 383.934 63.3412C384.696 65.4188 384.759 67.6487 384.115 69.7576C383.472 71.8665 382.15 73.7628 380.311 75.2144L380.299 75.1828Z" fill="#BA68C8"></path><path d="M386.575 28.7627C386.575 28.9099 375.267 32.6853 361.2 37.1759C347.133 41.6664 335.66 45.2736 335.601 45.1684C335.541 45.0633 346.908 41.2563 360.987 36.7552C375.065 32.2541 386.515 28.6259 386.575 28.7627Z" fill="#263238"></path><path d="M400.001 30.698C400.053 30.7893 400.097 30.8842 400.131 30.9819C400.226 31.1923 400.332 31.4657 400.474 31.8022C400.782 32.5699 401.209 33.6321 401.741 34.9572L406.288 46.7147C408.183 51.6995 410.444 57.6098 412.955 64.1721C414.139 67.4638 415.536 70.8921 416.838 74.4993C417.535 76.3581 417.837 78.3161 417.726 80.2729C417.626 81.2905 417.3 82.2806 416.767 83.186C416.198 84.0883 415.438 84.8846 414.529 85.5311C412.7 86.7171 410.67 87.6366 408.514 88.2549L402.416 90.2005L390.872 93.8707L371.323 100.054L358.12 104.177L354.568 105.229L353.621 105.502C353.52 105.542 353.412 105.567 353.301 105.576C353.301 105.576 353.396 105.576 353.597 105.449L354.521 105.123L358.073 103.935L371.204 99.6443L390.718 93.3344L402.239 89.6326L408.337 87.6765C410.431 87.0833 412.402 86.1918 414.174 85.0369C415.02 84.437 415.727 83.6978 416.258 82.8599C416.76 82.0226 417.062 81.1026 417.146 80.1572C417.255 78.2718 416.966 76.3849 416.294 74.594C415.015 71.0183 413.665 67.5584 412.445 64.2667C409.983 57.6939 407.709 51.7626 405.909 46.7778C404.11 41.7929 402.594 37.7861 401.552 34.9677C401.055 33.59 400.676 32.5174 400.368 31.7391L400.084 30.8978C400.048 30.8341 400.02 30.7671 400.001 30.698Z" fill="#263238"></path><path d="M366.657 16.1955C366.657 16.1955 366.03 15.922 364.869 15.5014C363.215 14.9369 361.466 14.6241 359.695 14.5759C357.07 14.496 354.457 14.9342 352.046 15.8589C349.114 17.0105 346.606 18.873 344.811 21.2329C343.005 23.586 342.035 26.3668 342.029 29.2149C342.053 31.5493 342.452 33.8687 343.213 36.1032C343.829 38.0172 344.468 39.5422 344.894 40.6043C345.146 41.1438 345.351 41.6992 345.51 42.2659C345.174 41.7615 344.892 41.2298 344.669 40.6779C344.184 39.6263 343.485 38.1329 342.798 36.2084C341.955 33.9504 341.496 31.5933 341.437 29.2149C341.405 26.2592 342.397 23.3662 344.279 20.9279C346.136 18.4819 348.746 16.5617 351.797 15.3962C354.284 14.4664 356.978 14.0562 359.671 14.1973C361.481 14.2792 363.258 14.6534 364.917 15.3016C365.36 15.4832 365.788 15.6942 366.196 15.9326C366.364 15.9983 366.52 16.087 366.657 16.1955Z" fill="#263238"></path><path d="M367.202 57.3465C367.391 57.2448 367.589 57.1569 367.794 57.0836C368.387 56.8461 369.001 56.6526 369.63 56.5052C370.628 56.2436 371.657 56.0883 372.697 56.0425C374.11 55.975 375.524 56.1647 376.853 56.5999C379.884 57.5463 382.666 60.2912 384.04 63.9614C384.699 65.9311 384.699 68.0283 384.04 69.9979C383.309 72.1357 382 74.0819 380.227 75.6663L380.298 75.3824C381.873 79.2209 383.59 83.3854 385.366 87.7288L385.473 87.9917L385.177 88.0863L382.465 88.8856L376.545 90.6418L376.249 90.726L376.154 90.4631C374.532 86.1092 372.756 82.0498 371.418 78.0641L371.678 78.2429C369.363 78.0721 367.156 77.3004 365.332 76.0239C363.681 74.8946 362.327 73.459 361.365 71.8173C360.497 70.3614 360.065 68.7318 360.11 67.0848C360.165 65.4016 360.638 63.75 361.496 62.2482C362.353 60.7464 363.574 59.4317 365.071 58.3982C365.687 57.954 366.379 57.599 367.12 57.3465C366.451 57.699 365.803 58.0816 365.178 58.4928C363.533 59.7284 362.274 61.318 361.519 63.1096C360.871 64.4606 360.568 65.9222 360.632 67.3895C360.695 68.8569 361.123 70.2935 361.886 71.5964C362.832 73.1758 364.153 74.5537 365.758 75.6348C367.499 76.8481 369.603 77.5796 371.808 77.7381H372.01L372.069 77.8958C373.371 81.808 375.159 85.8989 376.805 90.2738L376.414 90.1055L382.335 88.3492L385.034 87.5395L384.845 87.897C383.081 83.5537 381.376 79.3786 379.813 75.5401V75.3824L379.955 75.2562C381.676 73.7375 382.96 71.8724 383.697 69.8191C384.325 67.935 384.325 65.9297 383.697 64.0456C382.406 60.512 379.742 57.8303 376.853 56.8838C375.574 56.4458 374.208 56.2419 372.839 56.2844C371.816 56.3052 370.799 56.4286 369.807 56.6524C368.043 57.0416 367.214 57.3991 367.202 57.3465Z" fill="#263238"></path><path d="M330.603 361.001L212.326 360.517C205.496 360.483 198.96 358.044 194.153 353.733C189.347 349.423 186.663 343.594 186.691 337.528L187.946 74.1834C187.96 71.1778 188.641 68.2042 189.95 65.4324C191.258 62.6606 193.169 60.1451 195.573 58.0296C197.977 55.9141 200.826 54.2402 203.959 53.1034C207.092 51.9666 210.446 51.3894 213.83 51.4046L332.094 51.8883C338.925 51.919 345.462 54.3561 350.271 58.6645C355.08 62.973 357.766 68.8004 357.741 74.867L356.486 338.201C356.472 341.207 355.792 344.182 354.483 346.955C353.175 349.728 351.264 352.245 348.861 354.362C346.457 356.479 343.608 358.155 340.475 359.294C337.342 360.433 333.988 361.013 330.603 361.001Z" fill="#455A64"></path><path d="M331.917 60.9434H308.994C308.246 60.9557 307.508 61.0988 306.822 61.3645C306.136 61.6301 305.516 62.0131 304.997 62.4917C304.478 62.9702 304.07 63.5349 303.797 64.1534C303.524 64.7719 303.391 65.4322 303.405 66.0965V69.7878C303.419 70.4516 303.285 71.1114 303.012 71.7293C302.739 72.3472 302.331 72.9112 301.812 73.3889C301.292 73.8666 300.672 74.2486 299.987 74.5131C299.301 74.7777 298.563 74.9195 297.816 74.9304L253.129 74.7516C251.618 74.7158 250.184 74.1486 249.142 73.1745C248.101 72.2005 247.538 70.8992 247.576 69.5565V65.8651C247.614 64.5242 247.052 63.2245 246.014 62.2507C244.975 61.2769 243.544 60.7085 242.035 60.67H233.971L213.901 60.5859C209.127 60.5606 204.537 62.2164 201.135 65.1908C197.733 68.1651 195.796 72.2156 195.749 76.4553L194.565 333.5C194.554 335.604 195.01 337.688 195.906 339.635C196.802 341.582 198.122 343.353 199.789 344.847C201.455 346.341 203.437 347.529 205.621 348.343C207.805 349.157 210.148 349.581 212.516 349.591L330.544 350.074C332.913 350.084 335.262 349.679 337.456 348.883C339.649 348.086 341.644 346.914 343.328 345.432C345.011 343.951 346.349 342.189 347.266 340.248C348.183 338.308 348.661 336.225 348.672 334.121L349.856 77.0758C349.884 72.8241 348.01 68.7364 344.647 65.7113C341.283 62.6862 336.704 60.9712 331.917 60.9434Z" fill="white"></path><path d="M316.039 315.78L228.276 315.443C227.365 315.443 226.63 314.56 226.642 313.487L226.737 293.096C226.737 292.044 227.483 291.14 228.395 291.14L316.158 291.497C316.663 291.575 317.115 291.823 317.419 292.189C317.724 292.555 317.857 293.012 317.792 293.464L317.709 313.834C317.709 314.917 316.951 315.79 316.039 315.78Z" fill="#BA68C8"></path><path d="M256.05 300.763C256.015 300.47 255.874 300.243 255.628 300.081C255.382 299.919 255.079 299.838 254.721 299.838C254.459 299.838 254.23 299.881 254.034 299.966C253.84 300.05 253.688 300.167 253.578 300.315C253.47 300.463 253.416 300.632 253.416 300.82C253.416 300.978 253.454 301.114 253.529 301.227C253.606 301.339 253.704 301.432 253.823 301.507C253.943 301.581 254.068 301.641 254.199 301.689C254.33 301.736 254.45 301.773 254.56 301.802L255.16 301.964C255.314 302.004 255.485 302.06 255.674 302.131C255.865 302.202 256.047 302.3 256.22 302.423C256.395 302.544 256.539 302.7 256.653 302.891C256.767 303.081 256.823 303.315 256.823 303.592C256.823 303.912 256.74 304.201 256.572 304.459C256.407 304.716 256.164 304.922 255.844 305.074C255.527 305.226 255.141 305.302 254.687 305.302C254.263 305.302 253.896 305.233 253.586 305.097C253.278 304.96 253.036 304.769 252.859 304.525C252.684 304.28 252.584 303.997 252.561 303.673H253.301C253.32 303.896 253.395 304.081 253.526 304.228C253.659 304.372 253.826 304.48 254.028 304.551C254.232 304.62 254.452 304.655 254.687 304.655C254.96 304.655 255.205 304.611 255.423 304.522C255.64 304.432 255.813 304.306 255.94 304.147C256.067 303.985 256.13 303.796 256.13 303.581C256.13 303.384 256.075 303.225 255.966 303.101C255.856 302.978 255.712 302.878 255.533 302.801C255.354 302.724 255.16 302.657 254.952 302.599L254.225 302.391C253.763 302.258 253.397 302.069 253.127 301.822C252.858 301.576 252.723 301.253 252.723 300.855C252.723 300.524 252.813 300.235 252.992 299.989C253.173 299.74 253.415 299.548 253.719 299.411C254.025 299.273 254.367 299.203 254.744 299.203C255.125 299.203 255.464 299.272 255.761 299.408C256.057 299.543 256.292 299.728 256.465 299.963C256.64 300.198 256.733 300.464 256.743 300.763H256.05ZM258.717 299.284V305.198H258.001V299.284H258.717ZM264.842 299.284V305.198H264.149L260.927 300.555H260.869V305.198H260.153V299.284H260.846L264.08 303.939H264.137V299.284H264.842ZM270.318 301.132C270.254 300.938 270.17 300.763 270.066 300.609C269.964 300.454 269.842 300.321 269.7 300.211C269.559 300.101 269.399 300.018 269.22 299.96C269.041 299.902 268.845 299.873 268.631 299.873C268.281 299.873 267.962 299.964 267.675 300.145C267.389 300.326 267.16 300.592 266.991 300.944C266.822 301.297 266.737 301.729 266.737 302.241C266.737 302.753 266.823 303.185 266.994 303.537C267.165 303.89 267.397 304.156 267.69 304.337C267.982 304.518 268.312 304.609 268.677 304.609C269.016 304.609 269.315 304.537 269.573 304.392C269.832 304.246 270.035 304.04 270.179 303.774C270.325 303.507 270.398 303.192 270.398 302.83L270.618 302.876H268.839V302.241H271.091V302.876C271.091 303.363 270.987 303.787 270.78 304.147C270.574 304.507 270.289 304.786 269.925 304.984C269.563 305.18 269.147 305.279 268.677 305.279C268.154 305.279 267.694 305.155 267.297 304.909C266.903 304.663 266.595 304.312 266.373 303.858C266.154 303.404 266.044 302.865 266.044 302.241C266.044 301.773 266.107 301.353 266.232 300.979C266.359 300.604 266.538 300.284 266.769 300.02C267 299.757 267.273 299.555 267.589 299.414C267.905 299.274 268.252 299.203 268.631 299.203C268.943 299.203 269.234 299.25 269.503 299.345C269.775 299.437 270.016 299.569 270.228 299.74C270.442 299.91 270.62 300.113 270.762 300.35C270.905 300.584 271.003 300.845 271.057 301.132H270.318ZM278.486 299.284H279.202V303.2C279.202 303.604 279.106 303.965 278.916 304.282C278.727 304.598 278.461 304.847 278.116 305.03C277.771 305.211 277.367 305.302 276.903 305.302C276.439 305.302 276.035 305.211 275.69 305.03C275.346 304.847 275.078 304.598 274.888 304.282C274.699 303.965 274.605 303.604 274.605 303.2V299.284H275.321V303.142C275.321 303.431 275.384 303.688 275.511 303.913C275.639 304.136 275.819 304.312 276.054 304.441C276.291 304.568 276.574 304.632 276.903 304.632C277.232 304.632 277.515 304.568 277.752 304.441C277.989 304.312 278.17 304.136 278.295 303.913C278.422 303.688 278.486 303.431 278.486 303.142V299.284ZM280.632 305.198V299.284H282.63C283.094 299.284 283.473 299.368 283.768 299.535C284.064 299.701 284.284 299.925 284.426 300.208C284.568 300.491 284.64 300.807 284.64 301.155C284.64 301.504 284.568 301.82 284.426 302.105C284.285 302.39 284.068 302.617 283.773 302.787C283.479 302.954 283.102 303.038 282.641 303.038H281.209V302.403H282.618C282.936 302.403 283.191 302.348 283.384 302.238C283.576 302.128 283.716 301.98 283.802 301.793C283.891 301.605 283.935 301.392 283.935 301.155C283.935 300.918 283.891 300.707 283.802 300.52C283.716 300.333 283.575 300.187 283.381 300.081C283.186 299.973 282.928 299.919 282.607 299.919H281.348V305.198H280.632Z" fill="#E8E8E3"></path><path d="M245.782 136.505L215.328 136.382L215.303 141.346L245.756 141.469L245.782 136.505Z" fill="#BA68C8"></path><path opacity="0.1" d="M245.782 136.505L215.328 136.382L215.303 141.346L245.756 141.469L245.782 136.505Z" fill="black"></path><path d="M335.055 166.981C335.294 166.96 335.529 166.91 335.753 166.834C336.081 166.72 336.366 166.527 336.575 166.276C336.785 166.024 336.91 165.726 336.937 165.414C336.937 163.742 336.937 161.302 336.937 158.168C336.937 156.601 336.937 154.845 336.937 152.91C336.937 152.437 336.937 151.943 336.937 151.448C337.015 150.969 336.897 150.48 336.606 150.071C336.443 149.874 336.231 149.714 335.986 149.603C335.742 149.491 335.472 149.432 335.197 149.429H333.35H316.24L217.205 149.103C216.951 149.099 216.7 149.15 216.474 149.251C216.247 149.351 216.051 149.499 215.902 149.682C215.616 150.093 215.507 150.582 215.594 151.059C215.594 152.111 215.594 153.163 215.594 154.214C215.594 156.318 215.594 158.421 215.594 160.524C215.594 161.576 215.594 162.627 215.594 163.679C215.545 164.169 215.545 164.662 215.594 165.151C215.657 165.361 215.772 165.556 215.932 165.72C216.092 165.884 216.293 166.013 216.518 166.098C216.751 166.18 217.001 166.22 217.252 166.214H223.279L249.577 166.34L294.098 166.582L324.114 166.792L332.272 166.876H334.392C334.877 166.876 335.114 166.876 335.114 166.876H334.392H332.272H324.114H294.098L249.577 166.75L223.279 166.655H217.252C216.92 166.667 216.59 166.617 216.281 166.508C215.969 166.39 215.692 166.21 215.47 165.982C215.249 165.754 215.089 165.485 215.002 165.194C214.934 164.917 214.91 164.634 214.931 164.352V163.574C214.931 162.522 214.931 161.471 214.931 160.419C214.931 158.316 214.931 156.212 214.931 154.109C214.931 153.057 214.931 152.006 214.931 150.954C214.909 150.674 214.909 150.393 214.931 150.113C214.976 149.803 215.11 149.51 215.322 149.261C215.526 149.007 215.797 148.801 216.11 148.66C216.423 148.519 216.77 148.447 217.122 148.451L316.157 148.935L333.267 149.04H335.114C335.439 149.04 335.76 149.11 336.049 149.244C336.337 149.378 336.585 149.571 336.772 149.808C337.105 150.265 337.24 150.815 337.151 151.354C337.151 151.848 337.151 152.342 337.151 152.816C337.151 154.73 337.151 156.486 337.151 158.074C337.151 161.229 337.068 163.648 337.044 165.33C337.015 165.654 336.883 165.963 336.662 166.222C336.442 166.481 336.143 166.679 335.801 166.792C335.577 166.915 335.318 166.981 335.055 166.981Z" fill="#E0E0E0"></path><path d="M280.174 154.382H224.475V159.02H280.174V154.382Z" fill="#BA68C8"></path><path opacity="0.2" d="M280.174 154.382H224.475V159.02H280.174V154.382Z" fill="white"></path><path d="M245.573 181.787L215.119 181.664L215.094 186.628L245.547 186.751L245.573 181.787Z" fill="#BA68C8"></path><path opacity="0.1" d="M245.573 181.787L215.119 181.664L215.094 186.628L245.547 186.751L245.573 181.787Z" fill="black"></path><path d="M334.285 212.266C334.524 212.24 334.761 212.201 334.995 212.15C335.326 212.056 335.63 211.901 335.888 211.694C336.145 211.487 336.35 211.234 336.487 210.951C336.674 210.527 336.747 210.069 336.701 209.615C336.701 209.111 336.701 208.564 336.701 207.954C336.701 206.734 336.701 205.346 336.701 203.747V197.069C336.757 196.586 336.637 196.099 336.357 195.681C336.065 195.252 335.606 194.934 335.067 194.787C334.477 194.694 333.876 194.665 333.279 194.703H316.24L217.548 194.377C217.017 194.378 216.505 194.55 216.106 194.862C215.708 195.173 215.45 195.603 215.381 196.07C215.381 197.069 215.381 198.173 215.381 199.225C215.381 201.328 215.381 203.432 215.381 205.535C215.381 206.587 215.381 207.638 215.381 208.69C215.337 209.182 215.361 209.676 215.452 210.162C215.6 210.589 215.904 210.959 216.317 211.214C216.754 211.461 217.268 211.578 217.785 211.551H219.431H222.853L249.056 211.666L293.423 211.908L323.332 212.118L331.467 212.203H323.332H293.423L249.032 212.16L222.829 212.076H217.678C217.038 212.11 216.402 211.959 215.867 211.645C215.328 211.314 214.935 210.827 214.754 210.267C214.647 209.733 214.616 209.189 214.659 208.648C214.659 207.596 214.659 206.545 214.659 205.493C214.659 203.39 214.659 201.286 214.659 199.183C214.659 198.131 214.659 197.08 214.659 196.028C214.745 195.427 215.075 194.874 215.588 194.473C216.1 194.073 216.759 193.851 217.441 193.851L316.133 194.335L333.172 194.451C333.806 194.416 334.443 194.455 335.067 194.566C335.682 194.745 336.201 195.12 336.523 195.618C336.829 196.081 336.962 196.619 336.902 197.153C336.902 197.648 336.902 198.131 336.902 198.615C336.902 200.519 336.902 202.264 336.902 203.873C336.902 205.482 336.902 206.839 336.902 208.08C336.902 208.679 336.902 209.237 336.902 209.752C336.945 210.222 336.86 210.695 336.653 211.13C336.499 211.42 336.277 211.677 336.001 211.884C335.725 212.091 335.403 212.243 335.055 212.329C334.796 212.348 334.535 212.326 334.285 212.266Z" fill="#E0E0E0"></path><path d="M245.344 229.037L214.89 228.914L214.865 233.878L245.318 234.001L245.344 229.037Z" fill="#BA68C8"></path><path opacity="0.1" d="M245.344 229.037L214.89 228.914L214.865 233.878L245.318 234.001L245.344 229.037Z" fill="black"></path><path d="M334.048 259.495C334.287 259.47 334.525 259.432 334.759 259.38C335.088 259.287 335.391 259.133 335.648 258.928C335.905 258.723 336.111 258.472 336.25 258.191C336.436 257.767 336.509 257.31 336.464 256.856C336.464 256.341 336.464 255.804 336.464 255.184C336.464 253.974 336.464 252.576 336.464 250.977V244.299C336.52 243.816 336.4 243.329 336.12 242.911C335.821 242.49 335.364 242.177 334.83 242.028C334.24 241.93 333.64 241.899 333.042 241.933H316.003L217.311 241.607C216.78 241.608 216.268 241.78 215.869 242.092C215.471 242.403 215.213 242.833 215.144 243.3C215.144 244.352 215.144 245.403 215.144 246.455C215.144 248.558 215.144 250.662 215.144 252.765C215.144 253.817 215.144 254.868 215.144 255.92C215.1 256.408 215.124 256.899 215.215 257.382C215.357 257.811 215.663 258.183 216.08 258.433C216.514 258.685 217.03 258.804 217.548 258.77H222.698L248.902 258.896L293.269 259.138L323.178 259.348L331.313 259.432H323.178H293.269L248.902 259.317L222.698 259.222H217.548C216.907 259.26 216.27 259.109 215.736 258.791C215.197 258.459 214.804 257.973 214.623 257.413C214.517 256.879 214.485 256.335 214.528 255.794C214.528 254.742 214.528 253.69 214.528 252.639C214.528 250.535 214.528 248.432 214.528 246.329C214.528 245.277 214.528 244.225 214.528 243.121C214.612 242.521 214.94 241.968 215.45 241.567C215.96 241.166 216.618 240.945 217.299 240.944L315.991 241.428L333.03 241.544C333.664 241.509 334.301 241.548 334.924 241.659C335.539 241.838 336.058 242.213 336.381 242.711C336.687 243.174 336.82 243.712 336.76 244.247C336.76 244.741 336.76 245.235 336.76 245.708C336.76 247.612 336.76 249.358 336.76 250.967C336.76 252.576 336.76 253.932 336.76 255.173C336.76 255.773 336.76 256.33 336.76 256.845C336.805 257.316 336.72 257.789 336.511 258.223C336.357 258.513 336.135 258.77 335.859 258.977C335.583 259.184 335.26 259.336 334.912 259.422C334.635 259.506 334.339 259.531 334.048 259.495Z" fill="#E0E0E0"></path><path d="M278.985 200.978L223.287 200.753L223.263 205.391L278.961 205.616L278.985 200.978Z" fill="#BA68C8"></path><path opacity="0.2" d="M278.985 200.978L223.287 200.753L223.263 205.391L278.961 205.616L278.985 200.978Z" fill="white"></path><path d="M228.324 250.914C228.289 251.337 228.115 251.741 227.824 252.077C227.532 252.413 227.136 252.666 226.684 252.804C226.233 252.942 225.746 252.959 225.283 252.853C224.821 252.747 224.403 252.523 224.083 252.209C223.762 251.894 223.553 251.503 223.48 251.084C223.408 250.665 223.476 250.236 223.675 249.85C223.874 249.465 224.197 249.14 224.602 248.916C225.008 248.692 225.478 248.578 225.956 248.59C226.615 248.622 227.234 248.885 227.677 249.32C228.121 249.755 228.353 250.328 228.324 250.914Z" fill="#BA68C8"></path><path d="M235.865 250.945C235.888 251.242 235.843 251.539 235.731 251.82C235.619 252.1 235.444 252.356 235.216 252.574C234.987 252.791 234.711 252.964 234.404 253.083C234.098 253.201 233.766 253.263 233.432 253.263C233.097 253.263 232.766 253.201 232.459 253.083C232.152 252.964 231.876 252.791 231.648 252.574C231.42 252.356 231.244 252.1 231.133 251.82C231.021 251.539 230.975 251.242 230.999 250.945C230.975 250.649 231.021 250.351 231.133 250.071C231.244 249.791 231.42 249.534 231.648 249.317C231.876 249.1 232.152 248.926 232.459 248.808C232.766 248.689 233.097 248.628 233.432 248.628C233.766 248.628 234.098 248.689 234.404 248.808C234.711 248.926 234.987 249.1 235.216 249.317C235.444 249.534 235.619 249.791 235.731 250.071C235.843 250.351 235.888 250.649 235.865 250.945Z" fill="#BA68C8"></path><path d="M243.419 250.977C243.384 251.4 243.21 251.805 242.919 252.141C242.628 252.477 242.231 252.729 241.78 252.867C241.328 253.005 240.841 253.022 240.379 252.916C239.916 252.811 239.499 252.587 239.178 252.272C238.858 251.958 238.648 251.567 238.576 251.147C238.503 250.728 238.571 250.299 238.771 249.914C238.97 249.528 239.292 249.203 239.698 248.979C240.103 248.755 240.574 248.642 241.051 248.653C241.71 248.688 242.327 248.951 242.769 249.386C243.212 249.82 243.445 250.392 243.419 250.977Z" fill="#BA68C8"></path><path d="M250.962 251.008C250.927 251.431 250.753 251.836 250.462 252.172C250.17 252.508 249.774 252.761 249.322 252.899C248.871 253.036 248.383 253.054 247.921 252.948C247.459 252.842 247.041 252.618 246.721 252.304C246.4 251.989 246.191 251.598 246.118 251.179C246.046 250.759 246.114 250.33 246.313 249.945C246.512 249.56 246.835 249.235 247.24 249.011C247.646 248.787 248.116 248.673 248.594 248.684C249.252 248.72 249.869 248.983 250.312 249.417C250.754 249.852 250.988 250.423 250.962 251.008Z" fill="#BA68C8"></path><path d="M258.504 251.03C258.472 251.453 258.3 251.859 258.01 252.197C257.719 252.534 257.324 252.788 256.872 252.928C256.421 253.067 255.933 253.086 255.47 252.981C255.006 252.877 254.588 252.653 254.266 252.339C253.945 252.025 253.734 251.634 253.661 251.214C253.587 250.794 253.655 250.365 253.854 249.979C254.053 249.593 254.376 249.267 254.781 249.043C255.187 248.818 255.658 248.705 256.136 248.716C256.793 248.751 257.408 249.013 257.85 249.445C258.293 249.877 258.527 250.446 258.504 251.03Z" fill="#BA68C8"></path><path d="M266.059 251.061C266.026 251.483 265.856 251.886 265.569 252.223C265.281 252.56 264.889 252.814 264.441 252.955C263.993 253.097 263.508 253.119 263.046 253.018C262.584 252.918 262.165 252.7 261.841 252.391C261.516 252.082 261.301 251.695 261.221 251.279C261.141 250.862 261.199 250.434 261.39 250.047C261.58 249.66 261.894 249.331 262.292 249.1C262.69 248.869 263.156 248.746 263.631 248.747C264.298 248.769 264.928 249.025 265.383 249.459C265.838 249.893 266.081 250.469 266.059 251.061Z" fill="#BA68C8"></path><path d="M273.601 251.092C273.624 251.389 273.579 251.686 273.467 251.967C273.355 252.247 273.18 252.503 272.952 252.721C272.723 252.938 272.447 253.112 272.14 253.23C271.834 253.349 271.503 253.41 271.168 253.41C270.833 253.41 270.502 253.349 270.195 253.23C269.888 253.112 269.612 252.938 269.384 252.721C269.156 252.503 268.98 252.247 268.869 251.967C268.757 251.686 268.711 251.389 268.735 251.092C268.711 250.796 268.757 250.498 268.869 250.218C268.98 249.938 269.156 249.681 269.384 249.464C269.612 249.247 269.888 249.073 270.195 248.955C270.502 248.836 270.833 248.775 271.168 248.775C271.503 248.775 271.834 248.836 272.14 248.955C272.447 249.073 272.723 249.247 272.952 249.464C273.18 249.681 273.355 249.938 273.467 250.218C273.579 250.498 273.624 250.796 273.601 251.092Z" fill="#BA68C8"></path><path d="M281.144 251.124C281.112 251.546 280.941 251.949 280.654 252.286C280.366 252.623 279.974 252.877 279.526 253.018C279.078 253.16 278.593 253.182 278.131 253.081C277.669 252.981 277.25 252.763 276.926 252.454C276.602 252.145 276.386 251.758 276.306 251.342C276.226 250.925 276.285 250.497 276.475 250.11C276.665 249.723 276.979 249.394 277.377 249.163C277.775 248.932 278.241 248.809 278.717 248.81C279.384 248.832 280.013 249.088 280.468 249.522C280.923 249.955 281.166 250.532 281.144 251.124Z" fill="#BA68C8"></path><path d="M288.687 251.155C288.655 251.579 288.483 251.985 288.192 252.322C287.902 252.66 287.507 252.914 287.055 253.054C286.604 253.193 286.116 253.212 285.652 253.107C285.189 253.002 284.771 252.779 284.449 252.465C284.127 252.151 283.917 251.759 283.844 251.34C283.77 250.92 283.837 250.491 284.037 250.105C284.236 249.719 284.558 249.393 284.964 249.169C285.37 248.944 285.841 248.83 286.319 248.842C286.976 248.877 287.591 249.139 288.033 249.571C288.475 250.003 288.71 250.572 288.687 251.155Z" fill="#BA68C8"></path><g opacity="0.2"><path d="M228.324 250.914C228.289 251.337 228.115 251.741 227.824 252.077C227.532 252.413 227.136 252.666 226.684 252.804C226.233 252.942 225.746 252.959 225.283 252.853C224.821 252.747 224.403 252.523 224.083 252.209C223.762 251.894 223.553 251.503 223.48 251.084C223.408 250.665 223.476 250.236 223.675 249.85C223.874 249.465 224.197 249.14 224.602 248.916C225.008 248.692 225.478 248.578 225.956 248.59C226.615 248.622 227.234 248.885 227.677 249.32C228.121 249.755 228.353 250.328 228.324 250.914Z" fill="white"></path><path d="M235.865 250.944C235.888 251.241 235.843 251.538 235.731 251.819C235.619 252.099 235.444 252.356 235.216 252.573C234.987 252.79 234.711 252.964 234.404 253.082C234.098 253.201 233.766 253.262 233.432 253.262C233.097 253.262 232.766 253.201 232.459 253.082C232.152 252.964 231.876 252.79 231.648 252.573C231.42 252.356 231.244 252.099 231.133 251.819C231.021 251.538 230.975 251.241 230.999 250.944C230.975 250.648 231.021 250.35 231.133 250.07C231.244 249.79 231.42 249.533 231.648 249.316C231.876 249.099 232.152 248.925 232.459 248.807C232.766 248.688 233.097 248.627 233.432 248.627C233.766 248.627 234.098 248.688 234.404 248.807C234.711 248.925 234.987 249.099 235.216 249.316C235.444 249.533 235.619 249.79 235.731 250.07C235.843 250.35 235.888 250.648 235.865 250.944Z" fill="white"></path><path d="M243.419 250.977C243.384 251.4 243.21 251.805 242.919 252.141C242.628 252.477 242.231 252.729 241.78 252.867C241.328 253.005 240.841 253.022 240.379 252.917C239.916 252.811 239.499 252.587 239.178 252.272C238.858 251.958 238.648 251.567 238.576 251.147C238.503 250.728 238.571 250.299 238.771 249.914C238.97 249.528 239.292 249.204 239.698 248.979C240.103 248.755 240.574 248.642 241.051 248.653C241.71 248.688 242.327 248.951 242.769 249.386C243.212 249.82 243.445 250.392 243.419 250.977Z" fill="white"></path><path d="M250.962 251.008C250.927 251.431 250.753 251.836 250.462 252.172C250.17 252.508 249.774 252.76 249.322 252.898C248.871 253.036 248.383 253.053 247.921 252.947C247.459 252.842 247.041 252.618 246.721 252.303C246.4 251.989 246.191 251.598 246.118 251.178C246.046 250.759 246.114 250.33 246.313 249.945C246.512 249.559 246.835 249.234 247.24 249.01C247.646 248.786 248.116 248.673 248.594 248.684C249.252 248.719 249.869 248.982 250.312 249.417C250.754 249.851 250.988 250.423 250.962 251.008Z" fill="white"></path><path d="M258.504 251.03C258.472 251.454 258.3 251.859 258.01 252.197C257.719 252.534 257.324 252.789 256.872 252.928C256.421 253.068 255.933 253.086 255.47 252.982C255.006 252.877 254.588 252.653 254.266 252.339C253.945 252.025 253.734 251.634 253.661 251.214C253.587 250.795 253.655 250.365 253.854 249.979C254.053 249.593 254.376 249.268 254.781 249.043C255.187 248.819 255.658 248.705 256.136 248.716C256.793 248.752 257.408 249.013 257.85 249.445C258.293 249.878 258.527 250.446 258.504 251.03Z" fill="white"></path><path d="M266.059 251.061C266.026 251.482 265.856 251.886 265.569 252.223C265.281 252.559 264.889 252.814 264.441 252.955C263.993 253.097 263.508 253.118 263.046 253.018C262.584 252.918 262.165 252.7 261.841 252.391C261.516 252.082 261.301 251.695 261.221 251.279C261.141 250.862 261.199 250.434 261.39 250.047C261.58 249.66 261.894 249.331 262.292 249.1C262.69 248.869 263.156 248.746 263.631 248.747C264.298 248.769 264.928 249.025 265.383 249.459C265.838 249.892 266.081 250.469 266.059 251.061Z" fill="white"></path><path d="M273.601 251.092C273.624 251.389 273.579 251.686 273.467 251.967C273.355 252.247 273.18 252.503 272.952 252.721C272.723 252.938 272.447 253.112 272.14 253.23C271.834 253.349 271.503 253.41 271.168 253.41C270.833 253.41 270.502 253.349 270.195 253.23C269.888 253.112 269.612 252.938 269.384 252.721C269.156 252.503 268.98 252.247 268.869 251.967C268.757 251.686 268.711 251.389 268.735 251.092C268.711 250.796 268.757 250.498 268.869 250.218C268.98 249.938 269.156 249.681 269.384 249.464C269.612 249.247 269.888 249.073 270.195 248.955C270.502 248.836 270.833 248.775 271.168 248.775C271.503 248.775 271.834 248.836 272.14 248.955C272.447 249.073 272.723 249.247 272.952 249.464C273.18 249.681 273.355 249.938 273.467 250.218C273.579 250.498 273.624 250.796 273.601 251.092Z" fill="white"></path><path d="M281.144 251.124C281.112 251.545 280.942 251.949 280.654 252.286C280.367 252.622 279.975 252.877 279.526 253.018C279.078 253.16 278.593 253.181 278.131 253.081C277.669 252.981 277.25 252.763 276.926 252.453C276.602 252.144 276.386 251.758 276.306 251.341C276.226 250.925 276.285 250.497 276.475 250.11C276.665 249.723 276.979 249.393 277.377 249.162C277.776 248.932 278.241 248.809 278.717 248.81C279.384 248.832 280.014 249.088 280.469 249.522C280.924 249.955 281.167 250.531 281.144 251.124Z" fill="white"></path><path d="M288.687 251.156C288.654 251.58 288.482 251.985 288.192 252.323C287.902 252.66 287.506 252.915 287.055 253.054C286.603 253.194 286.115 253.212 285.652 253.107C285.189 253.003 284.77 252.779 284.449 252.465C284.127 252.151 283.916 251.76 283.843 251.34C283.77 250.921 283.837 250.491 284.036 250.105C284.235 249.719 284.558 249.394 284.964 249.169C285.37 248.945 285.841 248.831 286.319 248.842C286.975 248.878 287.59 249.139 288.032 249.571C288.475 250.004 288.71 250.572 288.687 251.156Z" fill="white"></path></g><path d="M277.971 99.3392C278.794 99.0175 279.492 98.488 279.978 97.8167C280.464 97.1454 280.718 96.3619 280.707 95.5637C280.737 95.0449 280.649 94.5259 280.446 94.0384C280.244 93.5509 279.932 93.1051 279.529 92.7282C279.126 92.3513 278.641 92.0512 278.104 91.846C277.566 91.6409 276.988 91.5352 276.403 91.5352C275.818 91.5352 275.239 91.6409 274.701 91.846C274.164 92.0512 273.679 92.3513 273.276 92.7282C272.873 93.1051 272.561 93.5509 272.359 94.0384C272.156 94.5259 272.068 95.0449 272.098 95.5637C272.08 96.3699 272.332 97.1628 272.821 97.8422C273.31 98.5217 274.014 99.0572 274.846 99.3812C268.215 100.265 268.511 106.659 268.511 106.659L284.188 106.722C284.188 106.722 284.555 100.212 277.971 99.3392Z" fill="#BA68C8"></path><path opacity="0.1" d="M277.971 99.3392C278.794 99.0175 279.492 98.488 279.978 97.8167C280.464 97.1454 280.718 96.3619 280.707 95.5637C280.737 95.0449 280.649 94.5259 280.446 94.0384C280.244 93.5509 279.932 93.1051 279.529 92.7282C279.126 92.3513 278.641 92.0512 278.104 91.846C277.566 91.6409 276.988 91.5352 276.403 91.5352C275.818 91.5352 275.239 91.6409 274.701 91.846C274.164 92.0512 273.679 92.3513 273.276 92.7282C272.873 93.1051 272.561 93.5509 272.359 94.0384C272.156 94.5259 272.068 95.0449 272.098 95.5637C272.08 96.3699 272.332 97.1628 272.821 97.8422C273.31 98.5217 274.014 99.0572 274.846 99.3812C268.215 100.265 268.511 106.659 268.511 106.659L284.188 106.722C284.188 106.722 284.555 100.212 277.971 99.3392Z" fill="black"></path><path d="M303.445 110.845L247.57 110.62L247.54 116.551L303.415 116.776L303.445 110.845Z" fill="#BA68C8"></path><path opacity="0.2" d="M303.445 110.845L247.57 110.62L247.54 116.551L303.415 116.776L303.445 110.845Z" fill="white"></path><path d="M98.0298 141.584H97.4733L95.863 141.689C94.9915 141.736 94.1249 141.838 93.2699 141.994C92.7161 142.063 92.1667 142.158 91.624 142.278L89.7887 142.73C86.6649 143.581 83.7177 144.878 81.0622 146.569C77.5536 148.831 74.6239 151.727 72.4658 155.066C71.1974 156.991 70.1879 159.042 69.4583 161.176C68.6916 163.496 68.2502 165.891 68.144 168.306C68.0734 169.575 68.0972 170.847 68.215 172.113C68.215 172.755 68.4163 173.396 68.511 174.048C68.5907 174.706 68.7293 175.356 68.9255 175.994C69.9902 180.214 72.1506 184.155 75.2343 187.502C78.318 190.848 82.2397 193.509 86.6865 195.271C89.9049 196.504 93.3545 197.193 96.8576 197.3C100.476 197.477 104.098 197.016 107.514 195.944L108.556 195.597H108.698L108.817 195.66L123.748 202.39L123.31 202.727C121.711 198.331 120.172 194.072 118.68 189.981V189.823L118.81 189.708C122.432 186.467 125.121 182.499 126.649 178.139C128.032 174.154 128.436 169.95 127.833 165.814C127.296 162.138 125.965 158.589 123.914 155.361C122.145 152.588 119.863 150.099 117.164 147.999C114.938 146.337 112.473 144.944 109.835 143.856C107.839 143.091 105.76 142.509 103.63 142.12L101.262 141.773L99.5454 141.658L98.5035 141.594H98.1482C98.2663 141.583 98.3854 141.583 98.5035 141.594H99.5573L101.274 141.658L103.642 141.963C105.798 142.323 107.905 142.884 109.93 143.635C112.613 144.71 115.122 146.1 117.389 147.768C120.138 149.858 122.468 152.347 124.281 155.129C126.391 158.392 127.762 161.989 128.318 165.719C128.972 169.92 128.596 174.196 127.217 178.255C125.679 182.705 122.949 186.758 119.26 190.065L119.331 189.792C120.823 193.883 122.374 198.142 123.985 202.527L124.21 203.169L123.535 202.864L108.604 196.144H108.864L107.798 196.491C104.316 197.579 100.627 198.051 96.9405 197.879C93.3619 197.758 89.8401 197.045 86.5562 195.776C80.2922 193.393 75.0805 189.252 71.7199 183.987C70.1734 181.555 69.044 178.932 68.369 176.204C68.1841 175.55 68.0457 174.886 67.9545 174.217C67.8598 173.554 67.7059 172.902 67.6704 172.25C67.3499 168.508 67.7952 164.746 68.9847 161.145C69.7325 158.981 70.77 156.905 72.0751 154.961C74.2847 151.591 77.2754 148.677 80.849 146.411C83.5483 144.716 86.545 143.429 89.7177 142.604L91.5767 142.183C92.1238 142.071 92.6771 141.983 93.2344 141.92C94.0983 141.778 94.973 141.694 95.8511 141.668L97.4733 141.615C97.6578 141.593 97.8437 141.583 98.0298 141.584Z" fill="#BA68C8"></path><path d="M104.778 166.108H102.587L97.8511 160.198V156.317C97.8511 156.317 94.4647 156.128 94.8673 161.208C95.2698 166.287 94.8673 164.994 94.8673 164.994C94.8673 164.994 87.68 164.994 87.088 165.572C86.4959 166.15 86.4604 172.313 86.3775 175.752C86.3321 176.581 86.6 177.4 87.1384 178.078C87.6769 178.756 88.4551 179.255 89.3495 179.496C89.6002 179.558 89.859 179.589 90.1192 179.591C91.9189 179.591 101.072 178.297 101.072 178.297H104.849L104.778 166.108Z" fill="#BA68C8"></path><path d="M111.042 165.067L109.693 178.36H105.951V165.34L111.042 165.067Z" fill="#BA68C8"></path><path d="M155.67 435.689V426.698L137.518 426.582L137.364 440.18L138.489 440.254C143.497 440.537 163.97 440.958 167.333 440.033C171.074 439.002 155.67 435.689 155.67 435.689Z" fill="#BA68C8"></path><path d="M167.759 439.191C167.759 439.338 160.962 439.464 152.591 439.464C144.22 439.464 137.423 439.338 137.423 439.191C137.423 439.044 144.22 438.918 152.591 438.918C160.962 438.918 167.759 439.044 167.759 439.191Z" fill="#263238"></path><path d="M155.99 437.53C155.836 437.456 155.99 436.983 156.357 436.478C156.724 435.973 157.221 435.763 157.34 435.868C157.458 435.973 157.209 436.373 156.854 436.804C156.499 437.235 156.144 437.604 155.99 437.53Z" fill="#263238"></path><path d="M157.149 438.118C156.983 438.118 157.066 437.529 157.421 436.972C157.776 436.415 158.25 436.078 158.38 436.162C158.511 436.246 158.297 436.719 157.966 437.214C157.634 437.708 157.303 438.171 157.149 438.118Z" fill="#263238"></path><path d="M142.893 439.149C142.822 439.149 142.549 438.959 142.158 438.56C141.681 438.046 141.15 437.574 140.572 437.151C140.003 436.747 139.326 436.482 138.606 436.383C138.05 436.32 137.695 436.383 137.659 436.32C137.623 436.257 137.967 436.036 138.618 435.994C139.478 435.978 140.316 436.231 140.986 436.709C141.614 437.164 142.144 437.716 142.549 438.339C142.822 438.802 142.964 439.107 142.893 439.149Z" fill="#263238"></path><path d="M156.048 435.836C156.131 435.963 155.823 436.278 155.302 436.446C154.781 436.615 154.319 436.552 154.296 436.446C154.272 436.341 154.639 436.12 155.089 435.973C155.539 435.826 155.953 435.71 156.048 435.836Z" fill="#263238"></path><path d="M155.764 434.964C155.764 435.121 155.291 435.248 154.675 435.258C154.059 435.269 153.574 435.142 153.586 434.995C153.598 434.848 154.083 434.711 154.675 434.701C155.267 434.69 155.741 434.816 155.764 434.964Z" fill="#263238"></path><path d="M200.367 435.689V426.698L182.216 426.582L182.062 440.043L183.187 440.117C188.195 440.401 208.68 440.958 212.03 440.033C215.772 439.002 200.367 435.689 200.367 435.689Z" fill="#BA68C8"></path><path d="M212.457 439.212C212.457 439.359 205.673 439.486 197.289 439.486C188.906 439.486 182.133 439.359 182.133 439.212C182.133 439.065 188.918 438.939 197.289 438.939C205.661 438.939 212.457 439.065 212.457 439.212Z" fill="#263238"></path><path d="M200.687 437.53C200.545 437.456 200.687 436.983 201.054 436.478C201.421 435.973 201.919 435.763 202.037 435.868C202.156 435.973 201.907 436.373 201.552 436.804C201.196 437.235 200.841 437.604 200.687 437.53Z" fill="#263238"></path><path d="M201.848 438.118C201.694 438.118 201.765 437.529 202.132 436.972C202.499 436.415 202.961 436.078 203.091 436.162C203.221 436.246 202.996 436.719 202.665 437.214C202.333 437.708 202.013 438.171 201.848 438.118Z" fill="#263238"></path><path d="M187.592 439.149C187.521 439.149 187.261 438.959 186.858 438.56C186.381 438.046 185.85 437.574 185.271 437.151C184.703 436.747 184.025 436.482 183.306 436.383C182.761 436.32 182.394 436.383 182.359 436.32C182.323 436.257 182.667 436.036 183.318 435.994C184.177 435.978 185.016 436.231 185.686 436.709C186.317 437.161 186.847 437.713 187.249 438.339C187.521 438.802 187.663 439.107 187.592 439.149Z" fill="#263238"></path><path d="M200.746 435.836C200.829 435.963 200.521 436.278 200 436.446C199.479 436.615 199.017 436.552 198.993 436.446C198.97 436.341 199.337 436.12 199.787 435.973C200.237 435.826 200.651 435.71 200.746 435.836Z" fill="#263238"></path><path d="M200.486 434.964C200.486 435.121 200.013 435.248 199.397 435.258C198.781 435.269 198.307 435.142 198.319 434.995C198.331 434.848 198.805 434.711 199.397 434.701C199.989 434.69 200.486 434.816 200.486 434.964Z" fill="#263238"></path><path d="M267.244 168.675C266.77 168.244 265.598 168.454 265.598 168.454C265.715 167.848 265.715 167.229 265.598 166.624C265.385 166.035 263.893 166.151 263.893 166.151C263.824 165.655 263.824 165.153 263.893 164.657C263.905 164.547 263.878 164.437 263.817 164.341C263.755 164.245 263.662 164.168 263.549 164.121C262.843 163.865 262.085 163.744 261.323 163.763C260.412 163.185 264.106 158.589 265.479 157.117C266.853 155.645 266.604 154.498 265.385 154.498C264.544 154.498 260.234 158.915 258.908 160.398C257.582 161.881 254.065 166.003 253.947 162.712C253.828 159.42 252.336 156.938 251.401 156.518C250.465 156.097 249.471 157.085 249.98 158C250.427 159.04 250.706 160.13 250.809 161.239C250.937 162.123 250.893 163.02 250.679 163.89C250.286 165.509 249.752 167.098 249.08 168.643H248.985C248.985 168.643 223.149 190.654 221.278 192.221C219.609 193.63 186.029 190.549 179.291 189.918C177.002 189.621 174.69 189.48 172.376 189.497C169.452 189.613 168.931 189.981 166.018 190.013C158.662 190.085 151.323 190.658 144.065 191.727C140.779 192.223 137.709 193.511 135.191 195.451C132.673 197.391 130.803 199.908 129.785 202.727C123.001 221.552 107.631 266.11 104.92 291.14C102.871 294.44 101.021 297.834 99.3785 301.309C97.4722 305.915 97.934 306.073 98.5733 306.178C100.302 306.462 102.268 298.196 103.002 300.194C103.736 302.192 99.2719 310.048 101.084 310.28C103.452 310.574 105.334 301.866 105.559 301.172C105.784 300.478 106.957 300.699 106.743 301.351C106.4 302.277 103.073 312.089 105.394 312.404C106.672 312.572 106.814 310.501 106.814 310.501C106.814 310.501 109.183 301.109 110.26 301.299C111.338 301.488 110.189 307.03 109.644 308.881C109.1 310.732 109.857 311.668 110.971 311.216C111.728 310.9 113.54 305.274 114.037 303.444C114.535 301.614 115.778 296.545 117.447 299.479C119.117 302.413 121.651 304.117 122.693 304.159C122.928 304.135 123.149 304.049 123.328 303.912C123.508 303.776 123.637 303.594 123.699 303.392C123.762 303.19 123.754 302.975 123.678 302.776C123.602 302.578 123.461 302.404 123.273 302.277C122.377 301.499 121.608 300.614 120.988 299.647C120.435 298.894 120.035 298.062 119.804 297.187C119.327 295.442 119.049 293.659 118.975 291.865L118.785 290.814C121.438 279.151 129.075 244.919 140.099 223.056L144.622 231.322L146.587 237.442L134.533 263.87L185.946 263.271L178.273 237.043L187.591 209.7C197.668 209.899 223.54 210.236 227.85 208.501C233.273 206.397 261.323 174.932 261.323 174.932C263.152 173.67 264.903 172.322 266.569 170.894C266.569 170.894 268.274 169.621 267.244 168.675Z" fill="#FFBE9D"></path><path d="M132.272 244.341C133.763 239.818 141.424 217.46 141.424 217.46C141.424 217.46 145.19 235.685 144.195 237.883C143.28 239.765 142.199 241.58 140.963 243.31C132.272 255.057 133.408 260.936 133.408 260.936L185.922 259.516C186.04 252.996 181.694 237.831 180.795 235.412C179.895 232.993 182.89 225.074 182.89 225.074C182.89 225.074 188.811 219.721 188.598 216.966C188.485 214.491 188.141 212.029 187.567 209.604L219.537 210.656L218.531 191.411L172.613 187.33C171.014 191.337 156.557 189.371 156.557 189.371C140.951 189.833 139.98 192.378 133.491 196.858C127.002 201.338 116.263 239.787 116.263 239.787L132.272 244.341Z" fill="#BA68C8"></path><path d="M163.318 239.787C162.408 239.932 161.481 239.974 160.559 239.914C158.842 239.914 156.486 239.808 153.893 239.577C151.3 239.346 148.956 239.02 147.286 238.725C146.365 238.62 145.463 238.415 144.598 238.115C145.524 238.116 146.448 238.193 147.357 238.347C149.038 238.536 151.371 238.799 153.952 239.03C156.534 239.262 158.878 239.419 160.571 239.524C161.494 239.535 162.414 239.623 163.318 239.787Z" fill="#263238"></path><path d="M166.917 235.822C166.007 236.218 165.044 236.511 164.052 236.695C159.328 237.797 154.454 238.311 149.571 238.22C148.56 238.249 147.55 238.164 146.563 237.967C147.561 237.856 148.566 237.81 149.571 237.831C151.43 237.778 153.987 237.662 156.805 237.368C159.623 237.073 162.134 236.653 163.91 236.316C164.896 236.082 165.902 235.917 166.917 235.822Z" fill="#263238"></path><path d="M184.583 218.134C184.559 218.935 184.436 219.732 184.216 220.51C183.908 221.972 183.435 223.97 182.831 226.158C182.227 228.345 181.647 230.364 181.126 231.732C180.916 232.514 180.606 233.273 180.202 233.993C180.268 233.193 180.435 232.403 180.699 231.637C181.149 229.996 181.659 228.103 182.227 226.032C182.795 223.96 183.34 222.067 183.79 220.426C183.95 219.637 184.217 218.867 184.583 218.134Z" fill="#263238"></path><path d="M132.828 241.659C130.089 241.284 127.385 240.725 124.741 239.987C122.038 239.426 119.387 238.688 116.807 237.779C119.545 238.161 122.248 238.719 124.895 239.451C127.597 240.01 130.249 240.748 132.828 241.659Z" fill="#263238"></path><path d="M188.137 209.373C187.69 209.442 187.234 209.442 186.787 209.373C185.55 209.261 184.336 209.003 183.176 208.606C181.239 207.959 179.475 206.96 177.999 205.672C176.523 204.385 175.366 202.837 174.603 201.128C173.76 199.249 173.4 197.226 173.549 195.208C173.602 193.543 174.163 191.922 175.171 190.517C175.881 189.571 176.941 188.876 178.167 188.551C178.495 188.47 178.834 188.431 179.174 188.435C179.41 188.435 179.529 188.435 179.529 188.435C179.529 188.435 179.032 188.435 178.238 188.719C177.113 189.088 176.159 189.78 175.527 190.686C173.916 192.936 173.466 197.048 175.183 200.887C175.982 202.697 177.233 204.322 178.842 205.64C180.16 206.719 181.678 207.587 183.33 208.206C184.879 208.75 186.491 209.141 188.137 209.373Z" fill="#263238"></path><path d="M215.737 210.278C215.441 207.053 215.346 203.816 215.453 200.581C215.36 197.35 215.471 194.116 215.784 190.896C216.081 194.117 216.175 197.351 216.068 200.581C216.168 203.816 216.057 207.054 215.737 210.278Z" fill="#263238"></path><path d="M172.305 188.509C172.436 186.164 172.708 183.514 172.708 183.514C172.708 183.514 179.244 182.872 179.635 176.878C180.025 170.883 179.635 157.054 179.635 157.054L167.794 151.67L154.651 160.851L156.676 190.823L168.729 191.506C169.651 191.529 170.545 191.226 171.215 190.664C171.885 190.102 172.277 189.327 172.305 188.509Z" fill="#FFBE9D"></path><path d="M173.478 172.134C173.478 172.134 173.478 172.25 173.371 172.387C173.283 172.486 173.169 172.565 173.039 172.616C172.909 172.667 172.767 172.69 172.625 172.681C171.867 172.681 171.133 171.903 170.873 170.999C170.749 170.56 170.749 170.101 170.873 169.663C170.897 169.472 170.975 169.289 171.099 169.131C171.223 168.973 171.389 168.845 171.583 168.759C171.742 168.7 171.921 168.7 172.08 168.759C172.198 168.811 172.294 168.896 172.353 169C172.436 169.179 172.353 169.295 172.353 169.284C172.353 169.274 172.353 169.179 172.234 169.074C172.172 168.999 172.081 168.946 171.979 168.927C171.876 168.908 171.769 168.922 171.678 168.969C171.533 169.047 171.412 169.156 171.327 169.287C171.242 169.417 171.196 169.565 171.192 169.716C171.093 170.107 171.093 170.513 171.192 170.904C171.429 171.724 172.069 172.387 172.637 172.45C172.748 172.463 172.861 172.456 172.969 172.429C173.077 172.402 173.178 172.355 173.264 172.292C173.407 172.208 173.454 172.124 173.478 172.134Z" fill="#EB996E"></path><path d="M183.698 153.815C182.786 151.059 179.482 149.692 176.475 148.935C171.893 147.778 166.943 147.273 162.467 148.735C157.992 150.197 152.616 152.763 152.616 157.148C149.975 156.959 148.46 159.01 147.418 161.555C146.752 163.105 146.353 164.736 146.234 166.392C145.902 172.134 144.091 180.064 139.899 184.27C137.531 186.616 134.251 188.235 132.901 191.159C131.717 193.693 132.333 196.701 131.232 199.267C130.249 201.528 128.082 203.137 126.495 205.104C124.879 207.335 123.928 209.894 123.731 212.541C123.534 215.188 124.098 217.837 125.371 220.237C126.652 222.576 128.456 224.658 130.673 226.358C132.89 228.057 135.473 229.338 138.265 230.123C143.796 231.617 149.694 231.668 155.256 230.27C159.431 229.383 163.326 227.668 166.647 225.253C170.046 222.788 172.38 219.355 173.254 215.536C174.095 211.245 172.745 206.881 171.739 202.611C168.589 189.119 169.489 188.414 173.467 175.889C173.562 175.668 173.609 175.437 173.68 175.216C173.752 174.995 173.787 174.89 173.834 174.721C173.947 174.226 174.007 173.723 174.012 173.218C173.431 173.41 172.8 173.45 172.194 173.335C171.588 173.219 171.031 172.952 170.59 172.566C170.148 172.153 169.839 171.642 169.698 171.087C169.556 170.531 169.586 169.952 169.785 169.411C170.064 168.818 170.481 168.285 171.007 167.845C171.533 167.405 172.158 167.067 172.84 166.855C174.154 166.371 175.563 166.119 176.854 165.583C179.589 164.426 181.483 162.028 182.774 159.515C183.835 157.773 184.163 155.752 183.698 153.815Z" fill="#263238"></path><path d="M173.951 172.418C174.201 172.747 174.408 173.099 174.567 173.47C174.922 174.132 175.396 175.068 175.917 176.152L176.011 176.351H175.763L174.579 176.446C173.762 176.446 173.075 176.583 172.27 176.572C172.2 176.558 172.135 176.529 172.081 176.486C172.027 176.444 171.986 176.39 171.962 176.33C171.927 176.235 171.927 176.132 171.962 176.036C171.989 175.894 172.025 175.754 172.069 175.615L172.282 174.869C172.389 174.37 172.556 173.884 172.779 173.417C172.757 173.925 172.674 174.429 172.53 174.921L172.365 175.668C172.305 175.92 172.199 176.309 172.365 176.278C172.957 176.278 173.797 176.162 174.579 176.12L175.763 176.025L175.609 176.257C175.1 175.205 174.674 174.217 174.425 173.533C174.207 173.184 174.047 172.808 173.951 172.418Z" fill="#BA68C8"></path><path d="M133.408 260.936L185.921 259.516L208.774 338.748L204.57 429.632H176.804L180.202 340.683L159.896 285.524L163.022 433.155L134.959 433.523L132.011 294.757C131.881 290.898 130.46 282.2 130.993 278.372L133.408 260.936Z" fill="#263238"></path><path d="M166.883 286.649C166.024 286.698 165.161 286.652 164.314 286.513C162.727 286.345 160.56 286.05 158.18 285.629C155.8 285.209 153.669 284.725 152.13 284.336C151.307 284.175 150.511 283.921 149.761 283.579C149.761 283.421 153.622 284.241 158.358 285.093C163.094 285.945 166.907 286.492 166.883 286.649Z" fill="#455A64"></path><path d="M204.288 424.647C204.288 424.794 198.001 424.92 190.245 424.92C182.489 424.92 176.19 424.794 176.19 424.647C176.19 424.5 182.478 424.374 190.245 424.374C198.013 424.374 204.288 424.489 204.288 424.647Z" fill="#455A64"></path><path d="M162.774 429.316C162.774 429.474 156.664 429.589 149.133 429.589C141.603 429.589 135.505 429.474 135.505 429.316C135.505 429.158 141.614 429.043 149.133 429.043C156.652 429.043 162.774 429.169 162.774 429.316Z" fill="#455A64"></path><path d="M159.149 428.937C158.984 428.937 158.249 396.683 157.503 356.899C156.757 317.115 156.319 284.84 156.473 284.84C156.627 284.84 157.385 317.084 158.119 356.889C158.853 396.694 159.327 428.937 159.149 428.937Z" fill="#455A64"></path><path d="M200.557 424.647C200.544 424.503 200.544 424.359 200.557 424.216V422.954C200.557 421.818 200.652 420.188 200.723 418.116C200.889 413.91 201.126 407.8 201.422 400.312C202.061 385.252 202.961 364.492 203.944 341.577C203.944 341.356 203.944 341.146 203.944 340.957V341.03C197.727 318.945 192.103 298.901 188.018 284.399L183.282 267.246C182.737 265.238 182.323 263.671 182.027 262.577C181.885 262.062 181.79 261.662 181.707 261.357C181.661 261.22 181.633 261.079 181.624 260.936C181.686 261.069 181.733 261.206 181.766 261.346C181.861 261.641 181.979 262.041 182.145 262.545C182.465 263.597 182.926 265.195 183.519 267.194C184.703 271.253 186.372 277.1 188.456 284.304C192.577 298.796 198.26 318.788 204.559 340.904V340.978C204.559 341.167 204.559 341.388 204.559 341.598C203.506 364.514 202.546 385.263 201.848 400.322C201.481 407.821 201.173 413.889 200.96 418.116C200.841 420.22 200.747 421.818 200.687 422.954C200.687 423.49 200.616 423.911 200.605 424.216C200.606 424.361 200.59 424.505 200.557 424.647Z" fill="#455A64"></path><path d="M191.499 339.106C189.505 339.688 187.451 340.093 185.366 340.315C182.808 340.704 180.63 340.978 179.647 341.02V340.809C179.967 340.894 180.132 340.946 180.132 340.988C180.132 341.03 179.931 340.988 179.6 340.988H178.889L179.6 340.799C180.523 340.557 182.702 340.157 185.259 339.747C187.311 339.352 189.401 339.137 191.499 339.106Z" fill="#455A64"></path><path d="M191.013 342.123C189.166 342.198 187.315 342.125 185.483 341.902C183.634 341.869 181.791 341.689 179.978 341.366C183.678 341.098 187.403 341.353 191.013 342.123Z" fill="#455A64"></path><path opacity="0.2" d="M133.184 262.608C133.806 263.318 134.589 263.902 135.482 264.325C136.376 264.747 137.36 264.997 138.37 265.059C140.485 265.281 142.624 265.246 144.728 264.953C158.286 263.618 172.648 262.387 185.922 259.516C168.741 260.368 150.589 260.084 133.409 260.936L133.231 262.24" fill="black"></path><g opacity="0.2"><path d="M150.886 284.114L160.572 317.494L159.897 285.523L150.886 284.114Z" fill="black"></path></g></svg>